<?xml version="1.0" encoding="UTF-8" standalone="no"?>
<svg
   version="1.1"
   viewBox="800 1100 1395.0082 1535.1837"
   style="clip-rule:evenodd;fill-rule:evenodd;image-rendering:optimizeQuality;shape-rendering:geometricPrecision;text-rendering:geometricPrecision"
   id="svg193"
   sodipodi:docname="py_logo_light.svg"
   inkscape:version="1.4.2 (ebf0e940, 2025-05-08)"
   width="1395.0082"
   height="1535.1837"
   xmlns:inkscape="http://www.inkscape.org/namespaces/inkscape"
   xmlns:sodipodi="http://sodipodi.sourceforge.net/DTD/sodipodi-0.dtd"
   xmlns:xlink="http://www.w3.org/1999/xlink"
   xmlns="http://www.w3.org/2000/svg"
   xmlns:svg="http://www.w3.org/2000/svg">
  <defs
     id="defs197">
    <inkscape:path-effect
       effect="fillet_chamfer"
       id="path-effect47"
       is_visible="true"
       lpeversion="1"
       nodesatellites_param=""
       radius="40"
       unit="px"
       method="auto"
       mode="F"
       chamfer_steps="1"
       flexible="false"
       use_knot_distance="true"
       apply_no_radius="true"
       apply_with_radius="true"
       only_selected="false"
       hide_knots="false"
       satellites_param="" />
    <inkscape:path-effect
       effect="fillet_chamfer"
       id="path-effect46"
       is_visible="true"
       lpeversion="1"
       nodesatellites_param=""
       radius="80"
       unit="px"
       method="auto"
       mode="F"
       chamfer_steps="1"
       flexible="false"
       use_knot_distance="true"
       apply_no_radius="true"
       apply_with_radius="true"
       only_selected="false"
       hide_knots="false"
       satellites_param="" />
    <inkscape:path-effect
       effect="fillet_chamfer"
       id="path-effect11"
       is_visible="true"
       lpeversion="1"
       nodesatellites_param=""
       radius="40"
       unit="px"
       method="auto"
       mode="F"
       chamfer_steps="1"
       flexible="false"
       use_knot_distance="true"
       apply_no_radius="true"
       apply_with_radius="true"
       only_selected="false"
       hide_knots="false"
       satellites_param="" />
    <inkscape:path-effect
       effect="fillet_chamfer"
       id="path-effect10"
       is_visible="true"
       lpeversion="1"
       nodesatellites_param=""
       radius="80"
       unit="px"
       method="auto"
       mode="F"
       chamfer_steps="1"
       flexible="false"
       use_knot_distance="true"
       apply_no_radius="true"
       apply_with_radius="true"
       only_selected="false"
       hide_knots="false"
       satellites_param="" />
    <inkscape:path-effect
       effect="fillet_chamfer"
       id="path-effect9"
       is_visible="true"
       lpeversion="1"
       nodesatellites_param=""
       radius="80"
       unit="px"
       method="auto"
       mode="F"
       chamfer_steps="1"
       flexible="false"
       use_knot_distance="true"
       apply_no_radius="true"
       apply_with_radius="true"
       only_selected="false"
       hide_knots="false"
       satellites_param="" />
    <inkscape:path-effect
       effect="fillet_chamfer"
       id="path-effect8"
       is_visible="true"
       lpeversion="1"
       nodesatellites_param=""
       radius="80"
       unit="px"
       method="auto"
       mode="F"
       chamfer_steps="1"
       flexible="false"
       use_knot_distance="true"
       apply_no_radius="true"
       apply_with_radius="true"
       only_selected="false"
       hide_knots="false"
       satellites_param="" />
    <inkscape:path-effect
       effect="fillet_chamfer"
       id="path-effect6"
       is_visible="true"
       lpeversion="1"
       nodesatellites_param=""
       radius="80"
       unit="px"
       method="auto"
       mode="F"
       chamfer_steps="1"
       flexible="false"
       use_knot_distance="true"
       apply_no_radius="true"
       apply_with_radius="true"
       only_selected="false"
       hide_knots="false"
       satellites_param="" />
    <inkscape:path-effect
       effect="fillet_chamfer"
       id="path-effect5"
       is_visible="true"
       lpeversion="1"
       nodesatellites_param=""
       radius="80"
       unit="px"
       method="auto"
       mode="F"
       chamfer_steps="1"
       flexible="false"
       use_knot_distance="true"
       apply_no_radius="true"
       apply_with_radius="true"
       only_selected="false"
       hide_knots="false"
       satellites_param="" />
    <inkscape:path-effect
       effect="fillet_chamfer"
       id="path-effect4"
       is_visible="true"
       lpeversion="1"
       nodesatellites_param=""
       radius="80"
       unit="px"
       method="auto"
       mode="F"
       chamfer_steps="1"
       flexible="false"
       use_knot_distance="true"
       apply_no_radius="true"
       apply_with_radius="true"
       only_selected="false"
       hide_knots="false"
       satellites_param="" />
    <inkscape:path-effect
       effect="fillet_chamfer"
       id="path-effect2"
       is_visible="true"
       lpeversion="1"
       nodesatellites_param=""
       radius="80"
       unit="px"
       method="auto"
       mode="F"
       chamfer_steps="1"
       flexible="false"
       use_knot_distance="true"
       apply_no_radius="true"
       apply_with_radius="true"
       only_selected="false"
       hide_knots="false"
       satellites_param="" />
    <linearGradient
       inkscape:collect="always"
       xlink:href="#linearGradient4689"
       id="linearGradient1478"
       gradientUnits="userSpaceOnUse"
       gradientTransform="matrix(3.9213713,0,0,3.8630979,704.63325,1789.6177)"
       x1="26.648937"
       y1="20.603781"
       x2="135.66525"
       y2="114.39767" />
    <linearGradient
       id="linearGradient4689">
      <stop
         style="stop-color:#5a9fd4;stop-opacity:1;"
         offset="0"
         id="stop4691" />
      <stop
         style="stop-color:#306998;stop-opacity:1;"
         offset="1"
         id="stop4693" />
    </linearGradient>
    <linearGradient
       inkscape:collect="always"
       xlink:href="#linearGradient4671"
       id="linearGradient1475"
       gradientUnits="userSpaceOnUse"
       gradientTransform="matrix(3.9213713,0,0,3.8630979,704.63325,1789.6177)"
       x1="150.96111"
       y1="192.35176"
       x2="112.03144"
       y2="137.27299" />
    <linearGradient
       id="linearGradient4671">
      <stop
         style="stop-color:#ffd43b;stop-opacity:1;"
         offset="0"
         id="stop4673" />
      <stop
         style="stop-color:#ffe873;stop-opacity:1"
         offset="1"
         id="stop4675" />
    </linearGradient>
  </defs>
  <sodipodi:namedview
     id="namedview195"
     pagecolor="#ffffff"
     bordercolor="#666666"
     borderopacity="1.0"
     inkscape:pageshadow="2"
     inkscape:pageopacity="0.0"
     inkscape:pagecheckerboard="0"
     showgrid="true"
     inkscape:object-paths="false"
     inkscape:zoom="0.35141431"
     inkscape:cx="519.33002"
     inkscape:cy="791.08901"
     inkscape:window-width="1720"
     inkscape:window-height="791"
     inkscape:window-x="0"
     inkscape:window-y="31"
     inkscape:window-maximized="0"
     inkscape:current-layer="svg193"
     fit-margin-top="0"
     fit-margin-left="0"
     fit-margin-right="0"
     fit-margin-bottom="0"
     inkscape:snap-bbox="true"
     inkscape:snap-global="true"
     inkscape:snap-nodes="true"
     inkscape:bbox-paths="false"
     inkscape:bbox-nodes="false"
     inkscape:snap-bbox-edge-midpoints="false"
     inkscape:snap-bbox-midpoints="false"
     inkscape:snap-intersection-paths="false"
     inkscape:snap-midpoints="true"
     inkscape:snap-object-midpoints="false"
     inkscape:snap-page="false"
     inkscape:snap-grids="true"
     inkscape:snap-others="false"
     inkscape:object-nodes="true"
     inkscape:snap-to-guides="false"
     inkscape:showpageshadow="2"
     inkscape:deskcolor="#d1d1d1">
    <inkscape:grid
       type="xygrid"
       id="grid85562"
       originx="-121.89854"
       originy="1688.3855"
       dotted="false"
       snapvisiblegridlinesonly="true"
       spacingy="1"
       spacingx="1"
       units="px" />
  </sodipodi:namedview>
  <path
     id="path44"
     style="fill:#e9a033;fill-opacity:1;stroke-width:0.929542"
     d="m 2100.0037,1127.5925 -380,275 c 118.3961,0 184.3965,59.8106 220,135 z"
     sodipodi:nodetypes="cccc" />
  <path
     fill="#04233b"
     d="m 1680.0036,1485.0929 c 140,0 243.5686,112.7225 243.5686,252.7225 0,140 -103.5684,237.2771 -243.5685,237.2771 l 245,275 h -205 l -337,-410 h 297 c 65,0 99.5,-44.9116 99.5,-104.9116 0,-60 -34.5,-105.088 -99.5,-105.088 l -470,-4e-4 -120,-145 z"
     id="path43"
     sodipodi:nodetypes="cccccccccccc"
     style="clip-rule:evenodd;fill:#ffffff;fill-opacity:1;fill-rule:evenodd;stroke-width:0.999999;image-rendering:optimizeQuality;shape-rendering:geometricPrecision;text-rendering:geometricPrecision" />
  <path
     id="path50"
     style="fill:#ffffff;fill-opacity:1;stroke:#ff4343;stroke-width:0;stroke-opacity:1"
     d="m 2003.9978,1511.1257 c 7.2761,4.0729 14.5521,8.1458 21.8282,12.2188 19.2769,10.7905 38.9589,37.1576 39.1777,59.248 v 560 c 0.1806,22.0907 -14.5187,49.6589 -33.6172,60.7617 -163.7937,95.2208 -327.589,190.4413 -491.3828,285.6621 -19.0984,11.1028 -50.2077,11.3569 -69.4844,0.5664 -89.9739,-50.3644 -179.9483,-100.7289 -269.9218,-151.0937 -35.7336,28.8809 -71.4658,57.7636 -107.1993,86.6445 l 343.1563,192.1504 c 43.3257,24.2601 96.4557,23.8336 139.3769,-1.1191 l 549.3106,-319.3516 c 42.921,-24.9534 70.1667,-70.0073 69.7617,-119.2207 v -630 c -0.4045,-49.2137 -33.5761,-94.9465 -76.9023,-119.207 l -67.1426,-37.5977 c -15.6534,40.1125 -31.3075,80.2255 -46.961,120.3379 z"
     sodipodi:nodetypes="csccssscccccccccc" />
  <path
     id="path54"
     style="fill:#ffffff;fill-opacity:1;stroke:#ff4343;stroke-width:0;stroke-opacity:1"
     d="M 1825.4861,1264.5339 1563.615,1117.8991 c -21.2879,-11.9199 -45.3756,-18.0915 -69.8418,-17.8945 -24.4658,0.1962 -48.4483,6.7538 -69.5371,19.0137 l -549.30855,319.3515 c -42.9218,24.9529 -75.3283,70.0088 -74.9238,119.2227 v 630 c 0.4041,49.2133 38.7371,94.9441 82.0625,119.2051 l 80.5293,45.0937 c 25.0899,-34.8316 50.17955,-69.6645 75.26945,-104.4961 -21.1744,-11.8528 -42.34885,-23.7058 -63.52335,-35.5586 -19.2767,-10.7905 -39.1572,-37.1534 -39.3379,-59.2441 v -560 c -0.1807,-22.0907 14.6807,-49.6627 33.7793,-60.7656 163.79425,-95.2207 327.58675,-190.4414 491.38085,-285.6621 9.5494,-5.5514 22.1014,-8.3899 34.6757,-8.4922 12.5742,-0.1023 25.1721,2.5305 34.8106,7.9258 60.5214,33.878 121.0431,67.7564 181.5644,101.6347 38.0907,-27.5661 76.1808,-55.1331 114.2715,-82.6992 z"
     sodipodi:nodetypes="ccccccccccscccssccc" />
  <path
     style="fill:url(#linearGradient1478);fill-opacity:1;stroke-width:6.88567"
     d="m 1191.9628,1869.2183 c -31.9521,0.1448 -62.4654,2.8036 -89.3136,7.4391 -79.0923,13.6338 -93.4528,42.1704 -93.4528,94.7968 v 69.5035 h 186.905 v 23.1678 h -186.905 -70.14385 c -54.3193,0 -101.8834,31.8566 -116.7612,92.4588 -17.1608,69.4641 -17.922,112.8108 0,185.3426 13.2865,53.9898 45.0148,92.4587 99.3342,92.4587 h 64.2625 v -83.3192 c 0,-60.1931 53.37625,-113.2885 116.76115,-113.2885 h 186.6868 c 51.9676,0 93.4529,-41.7491 93.4529,-92.6713 v -173.6524 c 0,-49.4225 -42.7311,-86.5484 -93.4529,-94.7968 -32.1074,-5.2149 -65.4217,-7.5841 -97.3732,-7.4391 z m -101.0769,55.9003 c 19.3059,0 35.0717,15.6343 35.0717,34.858 0,19.1554 -15.7658,34.6454 -35.0717,34.6454 -19.3753,0 -35.0721,-15.49 -35.0721,-34.6454 0,-19.2236 15.6968,-34.858 35.0721,-34.858 z"
     id="path1948" />
  <path
     style="fill:url(#linearGradient1475);fill-opacity:1;stroke-width:6.88567"
     d="m 1406.0973,2064.1255 v 80.9811 c 0,62.7835 -54.5529,115.6266 -116.7613,115.6266 h -186.6868 c -51.1365,0 -93.4528,42.7035 -93.4528,92.6713 v 173.6524 c 0,49.4225 44.0458,78.4923 93.4528,92.6714 59.1635,16.9739 115.8982,20.0416 186.6868,0 47.0546,-13.293 93.4529,-40.0451 93.4529,-92.6714 v -69.5035 h -186.6875 v -23.1678 h 186.6875 93.4523 c 54.3201,0 74.562,-36.9693 93.4529,-92.4587 19.5133,-57.1256 18.6831,-112.0612 0,-185.3426 -13.4245,-52.7627 -39.0639,-92.4588 -93.4529,-92.4588 z m -104.998,439.7636 c 19.3755,0 35.0724,15.49 35.0724,34.6454 0,19.2236 -15.6969,34.8581 -35.0724,34.8581 -19.3056,0 -35.0715,-15.6345 -35.0715,-34.8581 0,-19.1554 15.7659,-34.6454 35.0715,-34.6454 z"
     id="path1950" />
</svg>
